####
#
# OBJ File Generated by Meshlab
#
####
# Object hand_medial_sheet.obj
#
# Vertices: 28
# Faces: 33
#
####
vn 0.2286125 0.2754757 -0.9337288
v 0.6208240 0.8873360 0.1592470
vn 0.3421461 0.2815564 -0.8964720
v 0.7085670 0.8249200 0.1720680
vn 0.4110334 0.4106373 -0.8138970
v 0.6761300 0.8800370 0.1834950
vn -0.0324095 0.1053460 -0.9939074
v 0.4811210 0.6693150 0.1171820
vn -0.0884423 0.1897478 -0.9778414
v 0.4074060 0.7067360 0.1230080
vn -0.0009198 0.1280184 -0.9917714
v 0.4138340 0.6568700 0.1156380
vn 0.0005712 0.0995060 -0.9950368
v 0.4719410 0.5513440 0.1042100
vn 0.0623058 0.0886499 -0.9941123
v 0.5325320 0.6326560 0.1106620
vn 0.0735021 0.1204785 -0.9899911
v 0.5883290 0.7510710 0.1262700
vn 0.1265435 0.0590882 -0.9901997
v 0.5921750 0.6657030 0.1238730
vn 0.2002136 0.1561628 -0.9672268
v 0.6459490 0.7604670 0.1316240
vn 0.3234003 0.1541149 -0.9336278
v 0.7383130 0.7397240 0.1601940
vn 0.0506880 0.2250406 -0.9730301
v 0.5636290 0.8897420 0.1523680
vn 0.2854570 0.0505004 -0.9570601
v 0.7568340 0.6334610 0.1548030
vn 0.2139327 0.0403374 -0.9760153
v 0.6607830 0.5981580 0.1241380
vn 0.0075287 0.1099200 -0.9939120
v 0.4182720 0.5333670 0.1016710
vn -0.0630376 0.1968853 -0.9783979
v 0.5041370 0.7776600 0.1261370
vn -0.1453925 0.2386948 -0.9601489
v 0.5012150 0.8859920 0.1535110
vn -0.2260952 0.2837318 -0.9318676
v 0.4098420 0.8700450 0.1754070
vn 0.1974922 -0.0063013 -0.9802842
v 0.6542340 0.5262170 0.1242200
vn 0.2917480 0.0253027 -0.9561605
v 0.7126420 0.5809450 0.1398200
vn 0.3071749 0.0129985 -0.9515643
v 0.7816610 0.5193760 0.1612590
vn 0.1093478 0.0623709 -0.9920449
v 0.5358920 0.5469800 0.1043030
vn 0.1741152 0.0489633 -0.9835072
v 0.5409450 0.4820490 0.1019650
vn -0.4123462 0.1266147 -0.9021859
v 0.2763580 0.6977240 0.1805830
vn -0.3660837 0.2116982 -0.9061825
v 0.3184410 0.7851470 0.1736180
vn -0.2618991 0.2690172 -0.9268433
v 0.3750400 0.7529450 0.1432300
vn -0.2614377 0.3207418 -0.9103708
v 0.3702180 0.8295720 0.1716120
# 28 vertices, 0 vertices normals

f 1//1 3//3 2//2
f 4//4 6//6 5//5
f 4//4 8//8 7//7
f 9//9 10//10 8//8
f 1//1 2//2 11//11
f 2//2 12//12 11//11
f 9//9 13//13 11//11
f 1//1 11//11 13//13
f 9//9 11//11 10//10
f 12//12 14//14 11//11
f 10//10 11//11 15//15
f 4//4 7//7 16//16
f 4//4 16//16 6//6
f 9//9 17//17 13//13
f 18//18 13//13 17//17
f 9//9 8//8 17//17
f 18//18 17//17 19//19
f 4//4 5//5 17//17
f 4//4 17//17 8//8
f 15//15 21//21 20//20
f 14//14 22//22 21//21
f 14//14 21//21 11//11
f 15//15 11//11 21//21
f 7//7 8//8 23//23
f 10//10 15//15 23//23
f 10//10 23//23 8//8
f 24//24 23//23 20//20
f 15//15 20//20 23//23
f 25//25 26//26 27//27
f 28//28 19//19 27//27
f 28//28 27//27 26//26
f 19//19 17//17 27//27
f 5//5 27//27 17//17
# 33 faces, 0 coords texture

# End of File
